# xmcd
# 
# Track frame offsets:
#     150
#     15954
#     34759
#     50508
#     66494
# 
# Disc length: 1116
# 
# Revision: 0
# Processed by: cddbd v1.5.2PL0 Copyright (c) Steve Scherf et al.
# Submitted via: fre:ac v1.0.17
# 
DISCID=3a045a05
DTITLE=2NE1 - NOLZA
DYEAR=2011
DGENRE=Pop
TTITLE0=I AM THE BEST
TTITLE1=UGLY
TTITLE2=LONELY
TTITLE3=HATE YOU
TTITLE4=DON'T STOP THE MUSIC
EXTD=
EXTT0=
EXTT1=
EXTT2=
EXTT3=
EXTT4=
PLAYORDER=
